<svg xmlns="http://www.w3.org/2000/svg" width="700pt" height="700pt" viewBox="0 0 700 700"><g fill-rule="evenodd"><path d="m96.844 144.39c0.019531 0.10547 0.054688 0.19531 0.070312 0.30078 16.449 58.258 57.312 174.3 135.71 252.68 78.328 78.348 194.3 119.21 252.35 136.26 0.16016 0.050782 0.31641 0.10547 0.47266 0.13672 26.793 7.0703 55.336 1.0156 76.965-16.289 8.8203-7.0547 18.762-15 28.02-22.418 12.215-9.7656 19.426-24.465 19.688-40.094 0.27734-15.645-6.4414-30.574-18.324-40.758-23.238-19.914-53.793-46.113-72.766-62.371-16.027-13.754-38.742-16.535-57.645-7.1016l-43.418 21.715-11.48-2.8711c-68.984-17.234-122.83-71.082-140.07-140.07l-2.8711-11.48 21.715-43.418c9.4336-18.902 6.6523-41.617-7.1016-57.645-16.258-18.973-42.457-49.527-62.371-72.766-10.184-11.883-25.113-18.602-40.758-18.324-15.629 0.26172-30.328 7.4727-40.094 19.688-7.5234 9.3984-15.574 19.48-22.277 28.84-16.922 21.387-22.801 49.562-15.82 75.984zm33.812-9.0469c-4.1484-15.855-0.54297-32.723 9.6758-45.516 0.21094-0.24609 0.40234-0.49219 0.57812-0.75391 6.4062-8.9609 14.141-18.637 21.352-27.648 3.2539-4.0625 8.1523-6.4766 13.367-6.5625 5.2148-0.089843 10.203 2.1523 13.582 6.1055l62.387 72.785c4.5664 5.3359 5.5117 12.914 2.3633 19.215-10.324 20.633-24.605 49.207-24.605 49.207-1.8711 3.7305-2.3438 8.0156-1.332 12.078l4.4453 17.762c20.371 81.496 84.02 145.14 165.52 165.52 0 0 17.762 4.4453 17.762 4.4453 4.0625 1.0117 8.3477 0.53906 12.078-1.332 0 0 28.574-14.281 49.207-24.605 6.3008-3.1484 13.879-2.2031 19.215 2.3633l72.785 62.387c3.9531 3.3789 6.1953 8.3672 6.1055 13.582-0.085938 5.2148-2.5 10.113-6.5625 13.367l-28.016 22.418c-12.863 10.293-29.805 13.93-45.762 9.8906-54.848-16.137-163.93-53.918-237.43-127.42s-111.26-182.58-126.71-237.29z"></path><path d="m385 192.5c28.98 0 52.5 23.52 52.5 52.5 0 9.6602 7.8398 17.5 17.5 17.5s17.5-7.8398 17.5-17.5c0-48.301-39.199-87.5-87.5-87.5-9.6602 0-17.5 7.8398-17.5 17.5s7.8398 17.5 17.5 17.5z"></path><path d="m385 122.5c67.602 0 122.5 54.898 122.5 122.5 0 9.6602 7.8398 17.5 17.5 17.5s17.5-7.8398 17.5-17.5c0-86.922-70.578-157.5-157.5-157.5-9.6602 0-17.5 7.8398-17.5 17.5s7.8398 17.5 17.5 17.5z"></path><path d="m385 52.5c106.24 0 192.5 86.258 192.5 192.5 0 9.6602 7.8398 17.5 17.5 17.5s17.5-7.8398 17.5-17.5c0-125.56-101.94-227.5-227.5-227.5-9.6602 0-17.5 7.8398-17.5 17.5s7.8398 17.5 17.5 17.5z"></path></g></svg>