<svg xmlns="http://www.w3.org/2000/svg" xmlns:xlink="http://www.w3.org/1999/xlink" width="700pt" height="700pt" viewBox="0 0 700 700"><defs><symbol id="u"><path d="m3.6562-0.21875c-0.1875 0.09375-0.38672 0.16797-0.59375 0.21875-0.19922 0.050781-0.40625 0.078125-0.625 0.078125-0.66797 0-1.1992-0.17969-1.5938-0.54688-0.38672-0.375-0.57812-0.87891-0.57812-1.5156 0-0.64453 0.19141-1.1484 0.57812-1.5156 0.39453-0.375 0.92578-0.5625 1.5938-0.5625 0.21875 0 0.42578 0.027344 0.625 0.078125 0.20703 0.054687 0.40625 0.125 0.59375 0.21875v0.82812c-0.1875-0.125-0.375-0.21875-0.5625-0.28125-0.17969-0.0625-0.37109-0.09375-0.57812-0.09375-0.36719 0-0.65625 0.12109-0.875 0.35938-0.21094 0.23047-0.3125 0.55469-0.3125 0.96875 0 0.40625 0.10156 0.73047 0.3125 0.96875 0.21875 0.23047 0.50781 0.34375 0.875 0.34375 0.20703 0 0.39844-0.023437 0.57812-0.078125 0.1875-0.0625 0.375-0.16016 0.5625-0.29688z"></path></symbol><symbol id="d"><path d="m2.6875-2.1719c-0.085938-0.039063-0.16797-0.070313-0.25-0.09375-0.085938-0.019531-0.16797-0.03125-0.25-0.03125-0.25 0-0.44531 0.085937-0.57812 0.25-0.125 0.15625-0.1875 0.38281-0.1875 0.67188v1.375h-0.96875v-2.9844h0.96875v0.48438c0.11328-0.19531 0.25-0.33594 0.40625-0.42188 0.16406-0.09375 0.35938-0.14062 0.57812-0.14062h0.10938c0.039063 0 0.09375 0.007812 0.15625 0.015625z"></path></symbol><symbol id="b"><path d="m3.4375-1.5v0.26562h-2.2344c0.03125 0.23047 0.11328 0.40234 0.25 0.51562 0.13281 0.10547 0.32812 0.15625 0.57812 0.15625 0.20703 0 0.41406-0.023438 0.625-0.078125 0.20703-0.0625 0.42188-0.15625 0.64062-0.28125v0.73438c-0.21875 0.09375-0.44531 0.16406-0.67188 0.20312-0.23047 0.039062-0.45312 0.0625-0.67188 0.0625-0.54297 0-0.96484-0.13281-1.2656-0.40625-0.30469-0.28125-0.45312-0.67188-0.45312-1.1719 0-0.47656 0.14453-0.85938 0.4375-1.1406 0.30078-0.28125 0.70703-0.42188 1.2188-0.42188 0.46875 0 0.84375 0.14062 1.125 0.42188s0.42188 0.66406 0.42188 1.1406zm-0.96875-0.32812c0-0.17578-0.058594-0.31641-0.17188-0.42188-0.10547-0.11328-0.24219-0.17188-0.40625-0.17188-0.1875 0-0.33984 0.054687-0.45312 0.15625-0.11719 0.10547-0.1875 0.25-0.21875 0.4375z"></path></symbol><symbol id="k"><path d="m1.7969-1.3438c-0.19922 0-0.35156 0.039062-0.45312 0.10938-0.09375 0.0625-0.14062 0.16406-0.14062 0.29688 0 0.11719 0.035156 0.21094 0.10938 0.28125 0.082031 0.0625 0.19531 0.09375 0.34375 0.09375 0.17578 0 0.32812-0.0625 0.45312-0.1875s0.1875-0.28516 0.1875-0.48438v-0.10938zm1.4688-0.35938v1.7031h-0.96875v-0.4375c-0.125 0.17969-0.27344 0.30859-0.4375 0.39062-0.15625 0.082031-0.35156 0.125-0.57812 0.125-0.3125 0-0.57031-0.085938-0.76562-0.26562-0.1875-0.1875-0.28125-0.42188-0.28125-0.70312 0-0.35156 0.11719-0.61328 0.35938-0.78125 0.23828-0.16406 0.61719-0.25 1.1406-0.25h0.5625v-0.0625c0-0.15625-0.0625-0.26562-0.1875-0.32812-0.11719-0.070312-0.29688-0.10938-0.54688-0.10938-0.21094 0-0.40234 0.023437-0.57812 0.0625-0.17969 0.042969-0.33984 0.10156-0.48438 0.17188v-0.71875c0.19531-0.050781 0.39844-0.085938 0.60938-0.10938 0.20703-0.03125 0.41406-0.046875 0.625-0.046875 0.53906 0 0.92969 0.10938 1.1719 0.32812 0.23828 0.21094 0.35938 0.55469 0.35938 1.0312z"></path></symbol><symbol id="a"><path d="m1.5-3.8438v0.85938h0.98438v0.67188h-0.98438v1.2812c0 0.13672 0.023438 0.23047 0.078125 0.28125 0.0625 0.042969 0.17578 0.0625 0.34375 0.0625h0.48438v0.6875h-0.8125c-0.38672 0-0.65625-0.078125-0.8125-0.23438s-0.23438-0.42188-0.23438-0.79688v-1.2812h-0.46875v-0.67188h0.46875v-0.85938z"></path></symbol><symbol id="e"><path d="m2.5-2.5469v-1.6094h0.95312v4.1562h-0.95312v-0.4375c-0.13672 0.17969-0.28125 0.30859-0.4375 0.39062-0.15625 0.082031-0.33984 0.125-0.54688 0.125-0.375 0-0.68359-0.14453-0.92188-0.4375-0.23047-0.28906-0.34375-0.67188-0.34375-1.1406 0-0.45703 0.11328-0.83203 0.34375-1.125 0.23828-0.28906 0.54688-0.4375 0.92188-0.4375 0.19531 0 0.375 0.042969 0.53125 0.125 0.16406 0.085938 0.31641 0.21484 0.45312 0.39062zm-0.64062 1.9375c0.20703 0 0.36328-0.070313 0.46875-0.21875 0.11328-0.15625 0.17188-0.37891 0.17188-0.67188 0-0.28125-0.058594-0.49219-0.17188-0.64062-0.10547-0.15625-0.26172-0.23438-0.46875-0.23438-0.19922 0-0.35547 0.078125-0.46875 0.23438-0.10547 0.14844-0.15625 0.35938-0.15625 0.64062 0 0.29297 0.050781 0.51562 0.15625 0.67188 0.11328 0.14844 0.26953 0.21875 0.46875 0.21875z"></path></symbol><symbol id="j"><path d="m2.0469-0.60938c0.20703 0 0.36328-0.070313 0.46875-0.21875 0.11328-0.15625 0.17188-0.37891 0.17188-0.67188 0-0.28125-0.058594-0.49219-0.17188-0.64062-0.10547-0.15625-0.26172-0.23438-0.46875-0.23438-0.19922 0-0.35547 0.078125-0.46875 0.23438-0.10547 0.14844-0.15625 0.35938-0.15625 0.64062 0 0.29297 0.050781 0.51562 0.15625 0.67188 0.11328 0.14844 0.26953 0.21875 0.46875 0.21875zm-0.625-1.9375c0.125-0.17578 0.26562-0.30469 0.42188-0.39062 0.16406-0.082031 0.35156-0.125 0.5625-0.125 0.36328 0 0.66406 0.14844 0.90625 0.4375 0.23828 0.29297 0.35938 0.66797 0.35938 1.125 0 0.46875-0.12109 0.85156-0.35938 1.1406-0.24219 0.29297-0.54297 0.4375-0.90625 0.4375-0.21094 0-0.39844-0.042969-0.5625-0.125-0.15625-0.082031-0.29688-0.21094-0.42188-0.39062v0.4375h-0.96875v-4.1562h0.96875z"></path></symbol><symbol id="i"><path d="m0.0625-2.9844h0.95312l0.8125 2.0156 0.6875-2.0156h0.95312l-1.2656 3.2656c-0.125 0.33203-0.27344 0.56641-0.4375 0.70312-0.16797 0.13281-0.39062 0.20312-0.67188 0.20312h-0.54688v-0.64062h0.29688c0.16406 0 0.28516-0.027344 0.35938-0.078125 0.070313-0.054688 0.12891-0.14062 0.17188-0.26562l0.03125-0.09375z"></path></symbol><symbol id="h"><path d="m0.15625-3.9844h0.98438l0.70312 2.8906 0.67188-2.8906h1l0.67188 2.8906 0.70312-2.8906h0.96875l-0.9375 3.9844h-1.1875l-0.71875-3.0312-0.71875 3.0312h-1.1875z"></path></symbol><symbol id="g"><path d="m0.45312-2.9844h0.96875v2.9844h-0.96875zm0-1.1719h0.96875v0.78125h-0.96875z"></path></symbol><symbol id="t"><path d="m3.2812-3.8594v0.84375c-0.21875-0.10156-0.43359-0.17578-0.64062-0.21875-0.21094-0.050781-0.40625-0.078125-0.59375-0.078125-0.25 0-0.43359 0.039062-0.54688 0.10938-0.11719 0.0625-0.17188 0.16797-0.17188 0.3125 0 0.10547 0.035156 0.1875 0.10938 0.25 0.082031 0.054687 0.22656 0.10156 0.4375 0.14062l0.4375 0.09375c0.44531 0.09375 0.75781 0.23047 0.9375 0.40625 0.1875 0.17969 0.28125 0.4375 0.28125 0.78125 0 0.4375-0.13281 0.76562-0.39062 0.98438-0.26172 0.21094-0.65625 0.3125-1.1875 0.3125-0.25 0-0.50781-0.027344-0.76562-0.078125-0.25-0.039062-0.50781-0.10938-0.76562-0.20312v-0.875c0.25781 0.13672 0.50391 0.24219 0.73438 0.3125 0.23828 0.0625 0.47266 0.09375 0.70312 0.09375 0.21875 0 0.38281-0.035156 0.5-0.10938 0.125-0.070312 0.1875-0.17578 0.1875-0.3125 0-0.125-0.042969-0.21875-0.125-0.28125-0.085937-0.070312-0.24609-0.13281-0.48438-0.1875l-0.39062-0.09375c-0.40625-0.082031-0.70312-0.21875-0.89062-0.40625-0.17969-0.1875-0.26562-0.44141-0.26562-0.76562 0-0.39453 0.125-0.69531 0.375-0.90625 0.25781-0.21875 0.62891-0.32812 1.1094-0.32812 0.22656 0 0.45703 0.023438 0.6875 0.0625 0.22656 0.03125 0.46875 0.078125 0.71875 0.14062z"></path></symbol><symbol id="f"><path d="m0.42188-1.1719v-1.8125h0.96875v0.29688 0.60938 0.48438c0 0.24219 0.003906 0.41797 0.015625 0.53125 0.007812 0.10547 0.03125 0.17969 0.0625 0.21875 0.039062 0.0625 0.09375 0.11719 0.15625 0.15625 0.0625 0.03125 0.13281 0.046875 0.21875 0.046875 0.19531 0 0.35156-0.078125 0.46875-0.23438 0.11328-0.15625 0.17188-0.36719 0.17188-0.64062v-1.4688h0.95312v2.9844h-0.95312v-0.4375c-0.14844 0.17969-0.30469 0.30859-0.46875 0.39062-0.15625 0.082031-0.33594 0.125-0.53125 0.125-0.34375 0-0.60938-0.10156-0.79688-0.3125-0.17969-0.21875-0.26562-0.53125-0.26562-0.9375z"></path></symbol><symbol id="c"><path d="m1.875-2.375c-0.21094 0-0.37109 0.078125-0.48438 0.23438-0.10547 0.14844-0.15625 0.35938-0.15625 0.64062 0 0.29297 0.050781 0.51562 0.15625 0.67188 0.11328 0.14844 0.27344 0.21875 0.48438 0.21875 0.20703 0 0.36719-0.070313 0.48438-0.21875 0.11328-0.15625 0.17188-0.37891 0.17188-0.67188 0-0.28125-0.058594-0.49219-0.17188-0.64062-0.11719-0.15625-0.27734-0.23438-0.48438-0.23438zm0-0.6875c0.51953 0 0.92188 0.14062 1.2031 0.42188 0.28906 0.27344 0.4375 0.65234 0.4375 1.1406 0 0.5-0.14844 0.89062-0.4375 1.1719-0.28125 0.27344-0.68359 0.40625-1.2031 0.40625-0.51172 0-0.91406-0.13281-1.2031-0.40625-0.29297-0.28125-0.4375-0.67188-0.4375-1.1719 0-0.48828 0.14453-0.86719 0.4375-1.1406 0.28906-0.28125 0.69141-0.42188 1.2031-0.42188z"></path></symbol><symbol id="s"><path d="m2.4219-4.1562v0.625h-0.51562c-0.13672 0-0.23438 0.027344-0.29688 0.078125-0.054687 0.054687-0.078125 0.13672-0.078125 0.25v0.21875h0.82812v0.67188h-0.82812v2.3125h-0.95312v-2.3125h-0.46875v-0.67188h0.46875v-0.21875c0-0.32031 0.085937-0.5625 0.26562-0.71875 0.1875-0.15625 0.47266-0.23438 0.85938-0.23438z"></path></symbol><symbol id="r"><path d="m3.2344-2.5c0.11328-0.17578 0.25391-0.3125 0.42188-0.40625 0.16406-0.10156 0.35156-0.15625 0.5625-0.15625 0.33203 0 0.58594 0.10938 0.76562 0.32812 0.1875 0.21094 0.28125 0.51172 0.28125 0.90625v1.8281h-0.96875v-1.5625c0.007813-0.019531 0.015625-0.039062 0.015625-0.0625v-0.10938c0-0.21875-0.03125-0.375-0.09375-0.46875s-0.16406-0.14062-0.29688-0.14062c-0.1875 0-0.33594 0.078125-0.4375 0.23438-0.09375 0.14844-0.14062 0.35938-0.14062 0.64062v1.4688h-0.96875v-1.5625c0-0.33203-0.03125-0.54688-0.09375-0.64062-0.054688-0.09375-0.15234-0.14062-0.29688-0.14062-0.17969 0-0.32031 0.078125-0.42188 0.23438-0.09375 0.14844-0.14062 0.35938-0.14062 0.64062v1.4688h-0.96875v-2.9844h0.96875v0.4375c0.11328-0.17578 0.24219-0.30469 0.39062-0.39062 0.15625-0.082031 0.32812-0.125 0.51562-0.125 0.20703 0 0.39062 0.054688 0.54688 0.15625 0.15625 0.09375 0.27344 0.23047 0.35938 0.40625z"></path></symbol><symbol id="q"><path d="m3.4688-1.8281v1.8281h-0.96875v-1.3906c0-0.25781-0.007812-0.4375-0.015625-0.53125-0.011719-0.10156-0.03125-0.17578-0.0625-0.21875-0.03125-0.0625-0.085937-0.10938-0.15625-0.14062-0.0625-0.039062-0.13281-0.0625-0.20312-0.0625-0.21094 0-0.37109 0.078125-0.48438 0.23438-0.10547 0.15625-0.15625 0.37109-0.15625 0.64062v1.4688h-0.96875v-4.1562h0.96875v1.6094c0.13281-0.17578 0.28516-0.30469 0.45312-0.39062 0.16406-0.082031 0.34375-0.125 0.53125-0.125 0.34375 0 0.60156 0.10938 0.78125 0.32812 0.1875 0.21094 0.28125 0.51172 0.28125 0.90625z"></path></symbol><symbol id="p"><path d="m0.5-3.9844h1.1562l1.4375 2.7344v-2.7344h0.98438v3.9844h-1.1562l-1.4375-2.7344v2.7344h-0.98438z"></path></symbol><symbol id="o"><path d="m3.4688-1.8281v1.8281h-0.96875v-1.3906c0-0.25781-0.007812-0.4375-0.015625-0.53125-0.011719-0.10156-0.03125-0.17578-0.0625-0.21875-0.03125-0.0625-0.085937-0.10938-0.15625-0.14062-0.0625-0.039062-0.13281-0.0625-0.20312-0.0625-0.21094 0-0.37109 0.078125-0.48438 0.23438-0.10547 0.15625-0.15625 0.37109-0.15625 0.64062v1.4688h-0.96875v-2.9844h0.96875v0.4375c0.13281-0.17578 0.28516-0.30469 0.45312-0.39062 0.16406-0.082031 0.34375-0.125 0.53125-0.125 0.34375 0 0.60156 0.10938 0.78125 0.32812 0.1875 0.21094 0.28125 0.51172 0.28125 0.90625z"></path></symbol><symbol id="n"><path d="m0.5-3.9844h1.7031c0.50781 0 0.89844 0.11719 1.1719 0.34375 0.26953 0.21875 0.40625 0.53906 0.40625 0.95312 0 0.41797-0.13672 0.74219-0.40625 0.96875-0.27344 0.21875-0.66406 0.32812-1.1719 0.32812h-0.67188v1.3906h-1.0312zm1.0312 0.75v1.1094h0.5625c0.19531 0 0.34766-0.046875 0.45312-0.14062 0.11328-0.10156 0.17188-0.24219 0.17188-0.42188 0-0.17578-0.058594-0.3125-0.17188-0.40625-0.10547-0.09375-0.25781-0.14062-0.45312-0.14062z"></path></symbol><symbol id="m"><path d="m0.45312-2.9844h0.96875v2.9375c0 0.39453-0.10156 0.69531-0.29688 0.90625-0.1875 0.21875-0.46484 0.32812-0.82812 0.32812h-0.48438v-0.64062h0.17188c0.17578 0 0.29688-0.042969 0.35938-0.125 0.070312-0.074219 0.10938-0.23047 0.10938-0.46875zm0-1.1719h0.96875v0.78125h-0.96875z"></path></symbol><symbol id="l"><path d="m2.875-2.8906v0.76562c-0.125-0.082031-0.25781-0.14453-0.39062-0.1875-0.13672-0.039062-0.27344-0.0625-0.40625-0.0625-0.27344 0-0.48047 0.078125-0.625 0.23438-0.14844 0.15625-0.21875 0.37109-0.21875 0.64062 0 0.28125 0.070313 0.5 0.21875 0.65625 0.14453 0.15625 0.35156 0.23438 0.625 0.23438 0.14453 0 0.28516-0.019531 0.42188-0.0625 0.13281-0.039063 0.25781-0.10938 0.375-0.20312v0.78125c-0.14844 0.0625-0.29688 0.10156-0.45312 0.125-0.15625 0.03125-0.3125 0.046875-0.46875 0.046875-0.54297 0-0.96484-0.13281-1.2656-0.40625-0.30469-0.28125-0.45312-0.67188-0.45312-1.1719 0-0.48828 0.14844-0.86719 0.45312-1.1406 0.30078-0.28125 0.72266-0.42188 1.2656-0.42188 0.15625 0 0.3125 0.015625 0.46875 0.046875 0.15625 0.023437 0.30469 0.0625 0.45312 0.125z"></path></symbol></defs><g><path d="m437.5 394.19v-3.5c0-28.219-15.203-54.359-39.703-68.359l-16.516-9.4062c8.0938-10.609 12.469-23.625 12.469-37.078v-22.094c0-4.8125-3.9375-8.75-8.75-8.75h-70c-4.8125 0-8.75 3.9375-8.75 8.75v21.984c0 13.344 4.375 26.359 12.469 37.078l-16.516 9.4062c-24.5 14-39.594 40.141-39.703 68.359v84.875c0 7-2.7344 13.672-7.6562 18.594l-2.0781 2.0781c-4.9219 4.9219-7.6562 11.594-7.6562 18.594v1.5312c0 14.438 11.812 26.25 26.25 26.25h157.5c34.344 0 61.25-17.281 61.25-39.375-0.10938-6.3438-2.1875-12.578-6.125-17.5 8.2031-10.281 8.2031-24.719 0-35 3.9375-5.0312 6.125-11.156 6.125-17.5-0.10938-20.125-22.531-36.312-52.609-38.938zm35 73.938c0 10.391-17.938 21.875-43.75 21.875s-43.75-11.484-43.75-21.875c0-2.1875 0.76562-4.2656 1.9688-6.0156 10.828 6.4531 25.484 10.391 41.781 10.391s30.953-3.9375 41.781-10.391c1.2031 1.75 1.9688 3.8281 1.9688 6.0156zm0-35c0 10.391-17.938 21.875-43.75 21.875s-43.75-11.484-43.75-21.875 17.938-21.875 43.75-21.875 43.75 11.484 43.75 21.875zm-148.75-170.62h52.5v13.234c0 11.375-4.375 22.312-12.359 30.516h-27.672c-7.9844-8.0938-12.469-19.141-12.359-30.516v-13.234zm-8.75 227.5c0-19.359 15.641-35 35-35v-17.5c-28.984 0-52.5 23.406-52.5 52.391 0 12.906 4.8125 25.484 13.453 35.109h-39.703c-4.8125 0-8.75-3.9375-8.75-8.75v-1.5312c0-2.2969 0.875-4.5938 2.5156-6.2344l2.0781-2.0781c8.2031-8.2031 12.797-19.359 12.797-30.953v-84.875c0-21.984 11.812-42.219 30.844-53.156l18.375-10.5-14 55.891 16.953 4.2656 15.859-63.328h3.8281l15.859 63.328 16.953-4.2656-13.781-55.891 18.375 10.5c19.031 10.938 30.844 31.172 30.844 53.156v3.5c-30.078 2.625-52.5 18.812-52.5 38.938 0.10938 6.3438 2.1875 12.469 6.125 17.5-8.2031 10.281-8.2031 24.719 0 35-3.9375 5.0312-6.125 11.156-6.125 17.5 0 8.2031 3.7188 15.641 10.062 21.875h-27.562c-19.359 0.10938-35-15.531-35-34.891zm113.75 35c-25.812 0-43.75-11.484-43.75-21.875 0-2.1875 0.76562-4.2656 1.9688-6.0156 10.828 6.4531 25.484 10.391 41.781 10.391s30.953-3.9375 41.781-10.391c1.2031 1.75 1.8594 3.8281 1.9688 6.0156 0 10.391-17.938 21.875-43.75 21.875z"></path><path d="m603.75 332.5v-122.5c0-19.359-15.641-35-35-35h-70c-19.359 0-35 15.641-35 35v122.5c-4.8125 0-8.75 3.9375-8.75 8.75v35c0 4.8125 3.9375 8.75 8.75 8.75h140c4.8125 0 8.75-3.9375 8.75-8.75v-35c0-4.8125-3.9375-8.75-8.75-8.75zm-122.5-122.5c0-9.625 7.875-17.5 17.5-17.5h70c9.625 0 17.5 7.875 17.5 17.5v122.5h-105zm113.75 157.5h-122.5v-17.5h122.5z"></path><path d="m498.75 218.75h70v17.5h-70z"></path><path d="m507.5 253.75h52.5v17.5h-52.5z"></path><path d="m507.5 288.75h52.5v17.5h-52.5z"></path><path d="m245 315c0-8.75-4.375-17.062-11.812-21.875l-1.3125-5.3594c-3.6094-14.547-14.438-26.25-28.656-30.844l-12.688-4.2656c6.7812-6.5625 10.719-15.641 10.719-25.156v-43.75c0-4.8125-3.9375-8.75-8.75-8.75h-26.25c-19.359 0-35 15.641-35 35v17.5c0 9.5156 3.8281 18.594 10.719 25.156l-12.688 4.2656c-14.219 4.7031-25.047 16.406-28.656 30.844l-1.3125 5.3594c-7.4375 4.8125-11.812 13.125-11.812 21.875v70c0 4.8125 3.9375 8.75 8.75 8.75h140c4.8125 0 8.75-3.9375 8.75-8.75zm-96.25-105c0-9.625 7.875-17.5 17.5-17.5h17.5v35c0 9.625-7.875 17.5-17.5 17.5s-17.5-7.875-17.5-17.5zm-14 63.438 31.5-10.5 31.5 10.5c7.3281 2.4062 13.234 7.9844 16.078 15.312h-95.156c2.7344-7.2188 8.6406-12.797 16.078-15.312zm92.75 102.81h-122.5v-61.25c0-4.8125 3.9375-8.75 8.75-8.75h105c4.8125 0 8.75 3.9375 8.75 8.75z"></path><path d="m157.5 332.5h17.5v17.5h-17.5z"></path><path d="m227.5 105v17.5h43.094l73.172 73.172c3.3906 3.3906 8.9688 3.3906 12.359 0l78.75-78.75c0.98438-0.98438 1.9688-2.0781 2.9531-3.1719h34.672v-17.5h-24.172c11.266-30.078-3.9375-63.656-34.016-75.031-21.438-7.9844-45.5-2.8438-61.688 13.344l-2.5156 2.5156-2.5156-2.5156c-22.75-22.75-59.609-22.75-82.359 0-18.703 18.703-22.422 47.578-9.1875 70.438zm122.5 72.078-54.578-54.578h19.578c3.2812 0 6.3438-1.8594 7.875-4.8125l9.625-19.359 18.375 36.859c1.4219 2.8438 4.1562 4.5938 7.3281 4.8125h0.54688c2.9531 0 5.6875-1.4219 7.3281-3.9375l14.875-22.312h32.484zm-72.516-72.516c-15.859-15.969-15.859-41.672 0-57.641 15.859-15.859 41.672-15.859 57.641 0l8.75 8.75c3.3906 3.3906 8.9688 3.3906 12.359 0l8.75-8.75c15.969-15.859 41.672-15.859 57.641 0 13.016 13.125 15.75 33.359 6.4531 49.328h-52.828c-2.9531 0-5.6875 1.4219-7.3281 3.9375l-9.1875 13.672-19.469-39.047c-2.1875-4.375-7.4375-6.125-11.703-3.9375-1.6406 0.875-3.0625 2.1875-3.9375 3.9375l-14.984 30.188h-31.719z"></path><path d="m140.22 406.77-14.984 9.0781c23.844 39.375 57.641 71.859 98 94.172l8.4219-15.312c-37.516-20.891-69.125-51.188-91.438-87.938z"></path><path d="m502.03 472.06 10.828 13.672c27.344-21.656 50.203-48.562 67.047-79.078l-15.312-8.4219c-15.75 28.547-36.969 53.703-62.562 73.828z"></path><path d="m564.59 161.77 15.312-8.4219c-23.953-43.422-59.719-79.188-103.25-103.25l-8.4219 15.312c40.578 22.312 74.047 55.781 96.359 96.359z"></path><path d="m231.77 65.406-8.4219-15.312c-43.422 23.953-79.188 59.719-103.25 103.25l15.312 8.4219c22.312-40.578 55.781-74.047 96.359-96.359z"></path><use x="70" y="576.40625" xlink:href="#u"></use><use x="74.011719" y="576.40625" xlink:href="#d"></use><use x="76.710938" y="576.40625" xlink:href="#b"></use><use x="80.417969" y="576.40625" xlink:href="#k"></use><use x="84.109375" y="576.40625" xlink:href="#a"></use><use x="86.722656" y="576.40625" xlink:href="#b"></use><use x="90.433594" y="576.40625" xlink:href="#e"></use><use x="96.25" y="576.40625" xlink:href="#j"></use><use x="100.167969" y="576.40625" xlink:href="#i"></use><use x="105.636719" y="576.40625" xlink:href="#h"></use><use x="111.667969" y="576.40625" xlink:href="#g"></use><use x="113.542969" y="576.40625" xlink:href="#t"></use><use x="117.480469" y="576.40625" xlink:href="#a"></use><use x="120.09375" y="576.40625" xlink:href="#f"></use><use x="123.988281" y="576.40625" xlink:href="#e"></use><use x="127.902344" y="576.40625" xlink:href="#g"></use><use x="129.777344" y="576.40625" xlink:href="#c"></use><use x="70" y="581.875" xlink:href="#s"></use><use x="72.378906" y="581.875" xlink:href="#d"></use><use x="75.078125" y="581.875" xlink:href="#c"></use><use x="78.832031" y="581.875" xlink:href="#r"></use><use x="86.4375" y="581.875" xlink:href="#a"></use><use x="89.050781" y="581.875" xlink:href="#q"></use><use x="92.941406" y="581.875" xlink:href="#b"></use><use x="98.554688" y="581.875" xlink:href="#p"></use><use x="103.132812" y="581.875" xlink:href="#c"></use><use x="106.890625" y="581.875" xlink:href="#f"></use><use x="110.785156" y="581.875" xlink:href="#o"></use><use x="116.582031" y="581.875" xlink:href="#n"></use><use x="120.589844" y="581.875" xlink:href="#d"></use><use x="123.285156" y="581.875" xlink:href="#c"></use><use x="127.042969" y="581.875" xlink:href="#m"></use><use x="128.917969" y="581.875" xlink:href="#b"></use><use x="132.625" y="581.875" xlink:href="#l"></use><use x="135.867188" y="581.875" xlink:href="#a"></use></g></svg>