<svg xmlns="http://www.w3.org/2000/svg" width="700pt" height="700pt" viewBox="0 0 700 700"><path d="m437.5 210c-86.922 0-157.5 70.578-157.5 157.5s70.578 157.5 157.5 157.5 157.5-70.578 157.5-157.5-70.578-157.5-157.5-157.5zm-70-35h87.5c0 9.6602 7.8398 17.5 17.5 17.5s17.5-7.8398 17.5-17.5v-17.5c0-4.6367-1.8359-9.1016-5.1289-12.371l-105-105c-3.2734-3.2891-7.7344-5.1289-12.371-5.1289h-210c-28.98 0-52.5 23.52-52.5 52.5v385c0 28.98 23.52 52.5 52.5 52.5h140c9.6602 0 17.5-7.8398 17.5-17.5s-7.8398-17.5-17.5-17.5h-140c-9.6602 0-17.5-7.8398-17.5-17.5v-385c0-9.6602 7.8398-17.5 17.5-17.5h192.5v87.5c0 9.6602 7.8398 17.5 17.5 17.5zm70 70c67.602 0 122.5 54.898 122.5 122.5s-54.898 122.5-122.5 122.5-122.5-54.898-122.5-122.5 54.898-122.5 122.5-122.5zm-56.121 143.62 35 35c3.5859 3.5859 8.5586 5.4414 13.613 5.0742 5.0586-0.35156 9.7109-2.8867 12.758-6.9492l52.5-70c5.793-7.7344 4.2344-18.707-3.5-24.5-7.7344-5.793-18.707-4.2344-24.5 3.5l-40.391 53.863-20.738-20.738c-6.8242-6.8242-17.922-6.8242-24.746 0-6.8242 6.8242-6.8242 17.922 0 24.746zm-188.88 31.379h52.5c9.6602 0 17.5-7.8398 17.5-17.5s-7.8398-17.5-17.5-17.5h-52.5c-9.6602 0-17.5 7.8398-17.5 17.5s7.8398 17.5 17.5 17.5zm0-70h52.5c9.6602 0 17.5-7.8398 17.5-17.5s-7.8398-17.5-17.5-17.5h-52.5c-9.6602 0-17.5 7.8398-17.5 17.5s7.8398 17.5 17.5 17.5zm0-70h70c9.6602 0 17.5-7.8398 17.5-17.5s-7.8398-17.5-17.5-17.5h-70c-9.6602 0-17.5 7.8398-17.5 17.5s7.8398 17.5 17.5 17.5zm0-70h105c9.6602 0 17.5-7.8398 17.5-17.5s-7.8398-17.5-17.5-17.5h-105c-9.6602 0-17.5 7.8398-17.5 17.5s7.8398 17.5 17.5 17.5zm237.75-70-45.254-45.254v45.254zm-237.75 0h105c9.6602 0 17.5-7.8398 17.5-17.5s-7.8398-17.5-17.5-17.5h-105c-9.6602 0-17.5 7.8398-17.5 17.5s7.8398 17.5 17.5 17.5z" fill-rule="evenodd"></path></svg>