<svg xmlns="http://www.w3.org/2000/svg" width="700pt" height="700pt" viewBox="0 0 700 700"><g><path d="m140 367.5c0 23.207 9.2188 45.461 25.629 61.871s38.664 25.629 61.871 25.629 45.461-9.2188 61.871-25.629 25.629-38.664 25.629-61.871-9.2188-45.461-25.629-61.871-38.664-25.629-61.871-25.629-45.461 9.2188-61.871 25.629-25.629 38.664-25.629 61.871zm140 0c0 13.926-5.5312 27.277-15.375 37.125-9.8477 9.8438-23.199 15.375-37.125 15.375s-27.277-5.5312-37.125-15.375c-9.8438-9.8477-15.375-23.199-15.375-37.125s5.5312-27.277 15.375-37.125c9.8477-9.8438 23.199-15.375 37.125-15.375s27.277 5.5312 37.125 15.375c9.8438 9.8477 15.375 23.199 15.375 37.125z"></path><path d="m472.5 175c23.207 0 45.461-9.2188 61.871-25.629s25.629-38.664 25.629-61.871-9.2188-45.461-25.629-61.871-38.664-25.629-61.871-25.629-45.461 9.2188-61.871 25.629-25.629 38.664-25.629 61.871 9.2188 45.461 25.629 61.871 38.664 25.629 61.871 25.629zm0-140c13.926 0 27.277 5.5312 37.125 15.375 9.8438 9.8477 15.375 23.199 15.375 37.125s-5.5312 27.277-15.375 37.125c-9.8477 9.8438-23.199 15.375-37.125 15.375s-27.277-5.5312-37.125-15.375c-9.8438-9.8477-15.375-23.199-15.375-37.125s5.5312-27.277 15.375-37.125c9.8477-9.8438 23.199-15.375 37.125-15.375z"></path><path d="m624.89 390.11-70-70c-1.6406-1.6211-3.5781-2.918-5.707-3.8125-4.2852-1.7539-9.082-1.7539-13.367 0-2.1289 0.89453-4.0664 2.1914-5.707 3.8125l-70 70c-4.4258 4.4258-6.1562 10.879-4.5352 16.926 1.6211 6.0469 6.3438 10.77 12.391 12.391 6.0469 1.6211 12.5-0.10938 16.926-4.5352l40.109-40.145v132.75c0 4.6406-1.8438 9.0938-5.125 12.375s-7.7344 5.125-12.375 5.125h-70c-6.2539 0-12.031 3.3359-15.156 8.75s-3.125 12.086 0 17.5 8.9023 8.75 15.156 8.75h70c13.926 0 27.277-5.5312 37.125-15.375 9.8438-9.8477 15.375-23.199 15.375-37.125v-132.75l40.109 40.145c4.4258 4.4258 10.879 6.1562 16.926 4.5352 6.0469-1.6211 10.77-6.3438 12.391-12.391 1.6211-6.0469-0.10938-12.5-4.5352-16.926z"></path><path d="m105 192.5v-70c0-4.6406 1.8438-9.0938 5.125-12.375s7.7344-5.125 12.375-5.125h167.75l-40.145 40.109c-4.4258 4.4258-6.1562 10.879-4.5352 16.926 1.6211 6.0469 6.3438 10.77 12.391 12.391 6.0469 1.6211 12.5-0.10938 16.926-4.5352l70-70c3.2891-3.2852 5.1406-7.7422 5.1406-12.391s-1.8516-9.1055-5.1406-12.391l-70-70c-4.4258-4.4258-10.879-6.1562-16.926-4.5352-6.0469 1.6211-10.77 6.3438-12.391 12.391-1.6211 6.0469 0.10938 12.5 4.5352 16.926l40.145 40.109h-167.75c-13.926 0-27.277 5.5312-37.125 15.375-9.8438 9.8477-15.375 23.199-15.375 37.125v70c0 6.2539 3.3359 12.031 8.75 15.156s12.086 3.125 17.5 0 8.75-8.9023 8.75-15.156z"></path><path d="m581 273c3.75 5 9.8867 7.6211 16.094 6.875 6.207-0.75 11.543-4.75 14-10.5s1.6562-12.375-2.0938-17.375c-19.824-26.332-50.828-41.875-83.789-42h-105.42c-32.961 0.13281-63.961 15.672-83.789 42-2.7852 3.7148-3.9805 8.3789-3.3242 12.977 0.65625 4.5938 3.1094 8.7383 6.8242 11.523s8.3789 3.9805 12.977 3.3242c4.5938-0.65625 8.7383-3.1094 11.523-6.8242 13.254-17.586 33.98-27.949 56-28h105.42c21.871 0.17969 42.414 10.531 55.578 28z"></path><path d="m280.21 490h-105.42c-32.961 0.13281-63.961 15.672-83.789 42-2.7852 3.7148-3.9805 8.3789-3.3242 12.977 0.65625 4.5938 3.1094 8.7383 6.8242 11.523s8.3789 3.9805 12.977 3.3242c4.5938-0.65625 8.7383-3.1094 11.523-6.8242 13.254-17.586 33.98-27.949 56-28h105.21c21.934 0.125 42.555 10.48 55.754 28 3.75 5 9.8867 7.6211 16.094 6.875 6.207-0.75 11.543-4.75 14-10.5 2.457-5.75 1.6562-12.375-2.0938-17.375-19.816-26.324-50.805-41.863-83.754-42z"></path></g></svg>